REM DIRINDEX 1\2\6,1\2\7,1\2\8,1\3\9,1\3\10,1\3\11,1\4\12,1\4\13,1\4\14,1\5\15,1\5\16,1\5\17,1\5\18
REM DIRNAME cjc019,folder01,folder02,folder03,folder04,folder05,folder06,folder07,folder08,folder09,folder10,folder11,folder12,folder13,folder14,folder15,folder16,folder17
TITLE ""
FILE "2Q_t_0495-0512.mp3" MP3
  TRACK 01 AUDIO
    TITLE "13:cjc019_3048"
    INDEX 01 00:00:00
  TRACK 02 AUDIO
    TITLE "0:"
    INDEX 01 00:00:72
  TRACK 03 AUDIO
    TITLE "14:cjc019_3049"
    INDEX 01 00:01:54
  TRACK 04 AUDIO
    TITLE "0:"
    INDEX 01 00:03:15
  TRACK 05 AUDIO
    TITLE "13:cjc019_3050"
    INDEX 01 00:03:70
  TRACK 06 AUDIO
    TITLE "0:"
    INDEX 01 00:05:10
  TRACK 07 AUDIO
    TITLE "14:cjc019_3051"
    INDEX 01 00:05:71
  TRACK 08 AUDIO
    TITLE "0:"
    INDEX 01 00:07:27
  TRACK 09 AUDIO
    TITLE "13:cjc019_3052"
    INDEX 01 00:08:11
  TRACK 10 AUDIO
    TITLE "0:"
    INDEX 01 00:09:12
  TRACK 11 AUDIO
    TITLE "14:cjc019_3053"
    INDEX 01 00:09:73
  TRACK 12 AUDIO
    TITLE "0:"
    INDEX 01 00:14:21
  TRACK 13 AUDIO
    TITLE "13:cjc019_3054"
    INDEX 01 00:15:01
  TRACK 14 AUDIO
    TITLE "0:"
    INDEX 01 00:16:24
  TRACK 15 AUDIO
    TITLE "14:cjc019_3055"
    INDEX 01 00:17:02
  TRACK 16 AUDIO
    TITLE "0:"
    INDEX 01 00:20:10
  TRACK 17 AUDIO
    TITLE "13:cjc019_3056"
    INDEX 01 00:20:61
  TRACK 18 AUDIO
    TITLE "0:"
    INDEX 01 00:22:13
  TRACK 19 AUDIO
    TITLE "14:cjc019_3057"
    INDEX 01 00:22:58
  TRACK 20 AUDIO
    TITLE "0:"
    INDEX 01 00:26:42
  TRACK 21 AUDIO
    TITLE "13:cjc019_3058"
    INDEX 01 00:27:20
  TRACK 22 AUDIO
    TITLE "0:"
    INDEX 01 00:28:45
  TRACK 23 AUDIO
    TITLE "14:cjc019_3059"
    INDEX 01 00:29:27
  TRACK 24 AUDIO
    TITLE "0:"
    INDEX 01 00:32:43
  TRACK 25 AUDIO
    TITLE "13:cjc019_3060"
    INDEX 01 00:33:19
  TRACK 26 AUDIO
    TITLE "0:"
    INDEX 01 00:34:40
  TRACK 27 AUDIO
    TITLE "14:cjc019_3061"
    INDEX 01 00:35:19
  TRACK 28 AUDIO
    TITLE "0:"
    INDEX 01 00:39:37
  TRACK 29 AUDIO
    TITLE "13:cjc019_3062"
    INDEX 01 00:40:17
  TRACK 30 AUDIO
    TITLE "0:"
    INDEX 01 00:41:45
  TRACK 31 AUDIO
    TITLE "14:cjc019_3063"
    INDEX 01 00:42:25
  TRACK 32 AUDIO
    TITLE "0:"
    INDEX 01 00:45:55
  TRACK 33 AUDIO
    TITLE "13:cjc019_3064"
    INDEX 01 00:46:29
  TRACK 34 AUDIO
    TITLE "0:"
    INDEX 01 00:47:58
  TRACK 35 AUDIO
    TITLE "14:cjc019_3065"
    INDEX 01 00:48:38
  TRACK 36 AUDIO
    TITLE "0:"
    INDEX 01 00:50:25
  TRACK 37 AUDIO
    TITLE "13:cjc019_3066"
    INDEX 01 00:51:01
  TRACK 38 AUDIO
    TITLE "0:"
    INDEX 01 00:52:37
  TRACK 39 AUDIO
    TITLE "14:cjc019_3067"
    INDEX 01 00:53:19
  TRACK 40 AUDIO
    TITLE "0:"
    INDEX 01 00:56:12
  TRACK 41 AUDIO
    TITLE "13:cjc019_3068"
    INDEX 01 00:56:69
  TRACK 42 AUDIO
    TITLE "0:"
    INDEX 01 00:58:18
  TRACK 43 AUDIO
    TITLE "14:cjc019_3069"
    INDEX 01 00:59:06
  TRACK 44 AUDIO
    TITLE "0:"
    INDEX 01 01:00:45
  TRACK 45 AUDIO
    TITLE "13:cjc019_3070"
    INDEX 01 01:01:29
  TRACK 46 AUDIO
    TITLE "0:"
    INDEX 01 01:02:63
  TRACK 47 AUDIO
    TITLE "14:cjc019_3071"
    INDEX 01 01:03:41
  TRACK 48 AUDIO
    TITLE "0:"
    INDEX 01 01:08:33
  TRACK 49 AUDIO
    TITLE "13:cjc019_3072"
    INDEX 01 01:09:07
  TRACK 50 AUDIO
    TITLE "0:"
    INDEX 01 01:10:33
  TRACK 51 AUDIO
    TITLE "14:cjc019_3073"
    INDEX 01 01:11:11
  TRACK 52 AUDIO
    TITLE "0:"
    INDEX 01 01:14:57
  TRACK 53 AUDIO
    TITLE "13:cjc019_3074"
    INDEX 01 01:15:29
  TRACK 54 AUDIO
    TITLE "0:"
    INDEX 01 01:16:58
  TRACK 55 AUDIO
    TITLE "14:cjc019_3075"
    INDEX 01 01:17:30
  TRACK 56 AUDIO
    TITLE "0:"
    INDEX 01 01:19:03
  TRACK 57 AUDIO
    TITLE "13:cjc019_3076"
    INDEX 01 01:19:60
  TRACK 58 AUDIO
    TITLE "0:"
    INDEX 01 01:20:73
  TRACK 59 AUDIO
    TITLE "14:cjc019_3077"
    INDEX 01 01:21:51
  TRACK 60 AUDIO
    TITLE "0:"
    INDEX 01 01:24:22
  TRACK 61 AUDIO
    TITLE "13:cjc019_3078"
    INDEX 01 01:25:00
  TRACK 62 AUDIO
    TITLE "0:"
    INDEX 01 01:26:36
  TRACK 63 AUDIO
    TITLE "14:cjc019_3079"
    INDEX 01 01:27:16
  TRACK 64 AUDIO
    TITLE "0:"
    INDEX 01 01:28:57
  TRACK 65 AUDIO
    TITLE "13:cjc019_3080"
    INDEX 01 01:29:37
  TRACK 66 AUDIO
    TITLE "0:"
    INDEX 01 01:30:64
  TRACK 67 AUDIO
    TITLE "14:cjc019_3081"
    INDEX 01 01:31:43
  TRACK 68 AUDIO
    TITLE "0:"
    INDEX 01 01:33:15
  TRACK 69 AUDIO
    TITLE "13:cjc019_3082"
    INDEX 01 01:33:64
  TRACK 70 AUDIO
    TITLE "0:"
    INDEX 01 01:34:69
  TRACK 71 AUDIO
    TITLE "14:cjc019_3083"
    INDEX 01 01:35:55
  TRACK 72 AUDIO
    TITLE "0:"
    INDEX 01 01:40:52
